<svg width="48" height="50" viewBox="0 0 48 50" fill="none" xmlns="http://www.w3.org/2000/svg">
<path d="M38.5903 5.86244L18.5727 0L22.9251 8.30363L38.5903 5.86244Z" fill="#FCFBFB"/>
<path d="M20.7401 10.4954L15.6828 3.42124L2.90749 18.3001L20.7401 10.4954Z" fill="#FCFBFB"/>
<path d="M15.6828 35.6023L1.69163 20.7413L18.5727 14.8788L15.6828 35.6023Z" fill="#FCFBFB"/>
<path d="M17.3744 34.3906L22.9251 12.6871L37.1454 28.7776L17.3744 34.3906Z" fill="#FCFBFB"/>
<path d="M40.0352 27.3165V8.30363L24.37 10.4954L40.0352 27.3165Z" fill="#FCFBFB"/>
<path d="M48 31.9494L41.9736 10.4954V27.3165L48 31.9494Z" fill="#FCFBFB"/>
<path d="M40.0352 30.0071L45.3392 34.3906L31.3656 48.0399L40.0352 30.0071Z" fill="#FCFBFB"/>
<path d="M17.3744 37.3129L36.1762 30.9694L28.7048 48.0399L17.3744 37.3129Z" fill="#FCFBFB"/>
<path d="M13.7621 37.3129L26.2907 50L5.07489 45.8482L13.7621 37.3129Z" fill="#FCFBFB"/>
<path d="M5.07489 43.407L11.8238 35.6023L0 22.933L5.07489 43.407Z" fill="#FCFBFB"/>
<path d="M38.5903 5.86244L18.5727 0L22.9251 8.30363L38.5903 5.86244Z" stroke="#FCFCFC"/>
<path d="M20.7401 10.4954L15.6828 3.42124L2.90749 18.3001L20.7401 10.4954Z" stroke="#FCFCFC"/>
<path d="M15.6828 35.6023L1.69163 20.7413L18.5727 14.8788L15.6828 35.6023Z" stroke="#FCFCFC"/>
<path d="M17.3744 34.3906L22.9251 12.6871L37.1454 28.7776L17.3744 34.3906Z" stroke="#FCFCFC"/>
<path d="M40.0352 27.3165V8.30363L24.37 10.4954L40.0352 27.3165Z" stroke="#FCFCFC"/>
<path d="M48 31.9494L41.9736 10.4954V27.3165L48 31.9494Z" stroke="#FCFCFC"/>
<path d="M40.0352 30.0071L45.3392 34.3906L31.3656 48.0399L40.0352 30.0071Z" stroke="#FCFCFC"/>
<path d="M17.3744 37.3129L36.1762 30.9694L28.7048 48.0399L17.3744 37.3129Z" stroke="#FCFCFC"/>
<path d="M13.7621 37.3129L26.2907 50L5.07489 45.8482L13.7621 37.3129Z" stroke="#FCFCFC"/>
<path d="M5.07489 43.407L11.8238 35.6023L0 22.933L5.07489 43.407Z" stroke="#FCFCFC"/>
</svg>
